<svg xmlns="http://www.w3.org/2000/svg" viewBox="0 0 400 300" fill="none">
  <defs>
    <linearGradient id="g4" x1="0" y1="0" x2="1" y2="1">
      <stop offset="0%" stop-color="#ffb74d" stop-opacity="0.12"/>
      <stop offset="100%" stop-color="#ffb74d" stop-opacity="0.02"/>
    </linearGradient>
  </defs>
  <rect width="400" height="300" rx="12" fill="url(#g4)" stroke="#ffb74d" stroke-width="0.5" stroke-opacity="0.2"/>
  <!-- 生物信息学数据可视化 -->
  <g transform="translate(200,140)" stroke="#ffb74d" fill="none" opacity="0.8">
    <!-- DNA序列条 -->
    <rect x="-120" y="-50" width="20" height="15" rx="2" fill="#ffb74d" opacity="0.4" stroke="none"/>
    <rect x="-95" y="-50" width="20" height="15" rx="2" fill="#ffb74d" opacity="0.3" stroke="none"/>
    <rect x="-70" y="-50" width="20" height="15" rx="2" fill="#ffb74d" opacity="0.5" stroke="none"/>
    <rect x="-45" y="-50" width="20" height="15" rx="2" fill="#ffb74d" opacity="0.4" stroke="none"/>
    <rect x="-20" y="-50" width="20" height="15" rx="2" fill="#ffb74d" opacity="0.5" stroke="none"/>
    <rect x="5" y="-50" width="20" height="15" rx="2" fill="#ffb74d" opacity="0.3" stroke="none"/>
    <rect x="30" y="-50" width="20" height="15" rx="2" fill="#ffb74d" opacity="0.5" stroke="none"/>
    <rect x="55" y="-50" width="20" height="15" rx="2" fill="#ffb74d" opacity="0.4" stroke="none"/>
    <rect x="80" y="-50" width="20" height="15" rx="2" fill="#ffb74d" opacity="0.3" stroke="none"/>
    <rect x="105" y="-50" width="20" height="15" rx="2" fill="#ffb74d" opacity="0.5" stroke="none"/>
    <!-- 第二行 -->
    <rect x="-120" y="-30" width="20" height="15" rx="2" fill="#ffb74d" opacity="0.3" stroke="none"/>
    <rect x="-95" y="-30" width="20" height="15" rx="2" fill="#ffb74d" opacity="0.5" stroke="none"/>
    <rect x="-70" y="-30" width="20" height="15" rx="2" fill="#ffb74d" opacity="0.4" stroke="none"/>
    <rect x="-45" y="-30" width="20" height="15" rx="2" fill="#ffb74d" opacity="0.3" stroke="none"/>
    <rect x="-20" y="-30" width="20" height="15" rx="2" fill="#ffb74d" opacity="0.5" stroke="none"/>
    <rect x="5" y="-30" width="20" height="15" rx="2" fill="#ffb74d" opacity="0.4" stroke="none"/>
    <rect x="30" y="-30" width="20" height="15" rx="2" fill="#ffb74d" opacity="0.3" stroke="none"/>
    <rect x="55" y="-30" width="20" height="15" rx="2" fill="#ffb74d" opacity="0.5" stroke="none"/>
    <rect x="80" y="-30" width="20" height="15" rx="2" fill="#ffb74d" opacity="0.4" stroke="none"/>
    <rect x="105" y="-30" width="20" height="15" rx="2" fill="#ffb74d" opacity="0.3" stroke="none"/>
    <!-- 柱状图 -->
    <rect x="-110" y="10" width="14" height="30" rx="2" fill="#ffb74d" opacity="0.5" stroke="none"/>
    <rect x="-90" y="-5" width="14" height="45" rx="2" fill="#ffb74d" opacity="0.6" stroke="none"/>
    <rect x="-70" y="5" width="14" height="35" rx="2" fill="#ffb74d" opacity="0.4" stroke="none"/>
    <rect x="-50" y="-15" width="14" height="55" rx="2" fill="#ffb74d" opacity="0.6" stroke="none"/>
    <rect x="-30" y="15" width="14" height="25" rx="2" fill="#ffb74d" opacity="0.4" stroke="none"/>
    <rect x="-10" y="-10" width="14" height="50" rx="2" fill="#ffb74d" opacity="0.5" stroke="none"/>
    <rect x="10" y="0" width="14" height="40" rx="2" fill="#ffb74d" opacity="0.6" stroke="none"/>
    <rect x="30" y="10" width="14" height="30" rx="2" fill="#ffb74d" opacity="0.4" stroke="none"/>
    <rect x="50" y="-20" width="14" height="60" rx="2" fill="#ffb74d" opacity="0.6" stroke="none"/>
    <rect x="70" y="5" width="14" height="35" rx="2" fill="#ffb74d" opacity="0.5" stroke="none"/>
    <rect x="90" y="-5" width="14" height="45" rx="2" fill="#ffb74d" opacity="0.4" stroke="none"/>
    <!-- 折线图 -->
    <polyline points="-120,60 -100,45 -80,55 -60,35 -40,40 -20,25 0,30 20,15 40,20 60,10 80,25 100,5 120,20" stroke-width="2" opacity="0.6"/>
    <circle cx="-120" cy="60" r="3" fill="#ffb74d" opacity="0.7" stroke="none"/>
    <circle cx="-60" cy="35" r="3" fill="#ffb74d" opacity="0.7" stroke="none"/>
    <circle cx="0" cy="30" r="3" fill="#ffb74d" opacity="0.7" stroke="none"/>
    <circle cx="60" cy="10" r="3" fill="#ffb74d" opacity="0.7" stroke="none"/>
    <circle cx="120" cy="20" r="3" fill="#ffb74d" opacity="0.7" stroke="none"/>
  </g>
  <text x="200" y="270" text-anchor="middle" fill="#ffb74d" font-size="12" font-family="sans-serif" opacity="0.5">生信分析 · 占位图</text>
</svg>