<svg xmlns="http://www.w3.org/2000/svg" viewBox="0 0 400 300" fill="none">
  <defs>
    <linearGradient id="g1" x1="0" y1="0" x2="1" y2="1">
      <stop offset="0%" stop-color="#00c9a7" stop-opacity="0.15"/>
      <stop offset="100%" stop-color="#00c9a7" stop-opacity="0.02"/>
    </linearGradient>
  </defs>
  <rect width="400" height="300" rx="12" fill="url(#g1)" stroke="#00c9a7" stroke-width="0.5" stroke-opacity="0.2"/>
  <!-- DNA双螺旋 -->
  <g transform="translate(200,150)" stroke="#00c9a7" stroke-width="2" fill="none" opacity="0.8">
    <path d="M-60,-120 C-80,-60 -20,-20 -60,40 C-100,100 -40,120 -60,120" stroke-width="2.5"/>
    <path d="M60,-120 C80,-60 20,-20 60,40 C100,100 40,120 60,120" stroke-width="2.5"/>
    <!-- 碱基对连线 -->
    <line x1="-70" y1="-90" x2="70" y2="-90" stroke-width="1" opacity="0.5"/>
    <line x1="-60" y1="-50" x2="60" y2="-50" stroke-width="1" opacity="0.5"/>
    <line x1="-60" y1="-10" x2="60" y2="-10" stroke-width="1" opacity="0.5"/>
    <line x1="-60" y1="30" x2="60" y2="30" stroke-width="1" opacity="0.5"/>
    <line x1="-65" y1="70" x2="65" y2="70" stroke-width="1" opacity="0.5"/>
    <line x1="-60" y1="110" x2="60" y2="110" stroke-width="1" opacity="0.5"/>
    <!-- 节点 -->
    <circle cx="-75" cy="-105" r="3" fill="#00c9a7" opacity="0.6"/>
    <circle cx="75" cy="-105" r="3" fill="#00c9a7" opacity="0.6"/>
    <circle cx="-60" cy="-65" r="3" fill="#00c9a7" opacity="0.6"/>
    <circle cx="60" cy="-65" r="3" fill="#00c9a7" opacity="0.6"/>
    <circle cx="-60" cy="-25" r="3" fill="#00c9a7" opacity="0.6"/>
    <circle cx="60" cy="-25" r="3" fill="#00c9a7" opacity="0.6"/>
    <circle cx="-60" cy="15" r="3" fill="#00c9a7" opacity="0.6"/>
    <circle cx="60" cy="15" r="3" fill="#00c9a7" opacity="0.6"/>
    <circle cx="-55" cy="55" r="3" fill="#00c9a7" opacity="0.6"/>
    <circle cx="55" cy="55" r="3" fill="#00c9a7" opacity="0.6"/>
    <circle cx="-70" cy="95" r="3" fill="#00c9a7" opacity="0.6"/>
    <circle cx="70" cy="95" r="3" fill="#00c9a7" opacity="0.6"/>
  </g>
  <text x="200" y="270" text-anchor="middle" fill="#00c9a7" font-size="12" font-family="sans-serif" opacity="0.5">高通量基因合成 · 占位图</text>
</svg>